<svg xmlns="http://www.w3.org/2000/svg" width="26.12" height="13.5" viewBox="0 0 26.12 13.5">
  <g id="Group_13" data-name="Group 13" transform="translate(-4.94 -19.25)">
    <path id="Path_33" data-name="Path 33" d="M26.381,25.413a15.841,15.841,0,0,0-3.619.428" transform="translate(-8.381 -2.707)" fill="none" stroke="#000054" stroke-linecap="round" stroke-linejoin="round" stroke-width="1.5"/>
    <line id="Line_21" data-name="Line 21" x1="5.975" y1="5.647" transform="translate(6 25)" fill="none" stroke="#000054" stroke-linecap="round" stroke-linejoin="round" stroke-width="1.5"/>
    <path id="Path_34" data-name="Path 34" d="M13.163,28.047c.341,1.41,1.734,6.08,2.448,6.677s3.212,1.3,5.971,1.3" transform="translate(-3.582 -4.024)" fill="none" stroke="#000054" stroke-linecap="round" stroke-linejoin="round" stroke-width="1.5"/>
    <path id="Path_35" data-name="Path 35" d="M30,25.413a15.841,15.841,0,0,1,3.619.428" transform="translate(-12 -2.707)" fill="none" stroke="#000054" stroke-linecap="round" stroke-linejoin="round" stroke-width="1.5"/>
    <g id="Group_12" data-name="Group 12" transform="translate(13.705 28.364)">
      <path id="Path_36" data-name="Path 36" d="M30,36.727a16.47,16.47,0,0,1-4.295.637,16.47,16.47,0,0,1-4.295-.637" transform="translate(-21.411 -36.727)" fill="none" stroke="#000054" stroke-linecap="round" stroke-linejoin="round" stroke-width="1.5"/>
    </g>
    <line id="Line_22" data-name="Line 22" y1="5.647" x2="5.975" transform="translate(24.025 25)" fill="none" stroke="#000054" stroke-linecap="round" stroke-linejoin="round" stroke-width="1.5"/>
    <line id="Line_23" data-name="Line 23" y1="1.735" x2="2.518" transform="translate(26.482 20.47)" fill="none" stroke="#000054" stroke-linecap="round" stroke-linejoin="round" stroke-width="1.5"/>
    <path id="Path_37" data-name="Path 37" d="M19,32c2.759,0,5.257-.7,5.971-1.3s2.107-5.267,2.448-6.677.064-1.818.064-1.818a17.415,17.415,0,0,0-16.965,0L8,20.625" transform="translate(-1)" fill="none" stroke="#000054" stroke-linecap="round" stroke-linejoin="round" stroke-width="1.5"/>
    <line id="Line_24" data-name="Line 24" x2="5.238" transform="translate(15.381 25.75)" fill="none" stroke="#000054" stroke-linecap="round" stroke-linejoin="round" stroke-width="1.5"/>
  </g>
</svg>
